# xmcd
#
# Track frame offsets: 
#        150
#        15223
#        29404
#        45701
#        67089
#        84952
#        102962
#        119822
#
# Disc length: 1761 seconds
#
# Revision: 0
# Processed by: cddbd v1.5.2PL0 Copyright (c) Steve Scherf et al.
# Submitted via: ExactAudioCopy v0.99pb3
#
DISCID=6206df08
DTITLE=Dennis Peters Band - The Dennis Peters Band
DYEAR=2005
DGENRE=Blues
TTITLE0=I'm Satisfied
TTITLE1=Hey Hey Mama
TTITLE2=Too Many Nights
TTITLE3=You Wanted It That Way
TTITLE4=I Got The Blues Baby
TTITLE5=I've Been Down For So Long
TTITLE6=Why Do I Suffer Like I Do
TTITLE7=Pancakes
EXTD=
EXTT0=
EXTT1=
EXTT2=
EXTT3=
EXTT4=
EXTT5=
EXTT6=
EXTT7=
PLAYORDER=
